<svg width="44" height="38" viewBox="0 0 44 38" fill="none" xmlns="http://www.w3.org/2000/svg">
<path d="M6.43084 16.9782L33.2038 14.5959C34.8858 14.4842 36.5677 14.8032 38.0957 15.5158L41.7408 16.8825C43.4705 17.6908 43.4705 20.1582 41.7408 20.9718L38.0957 22.3384C36.5677 23.051 34.8858 23.3701 33.2038 23.2584L6.97203 20.9239L2.18091 25.7205C1.85195 26.0502 1.40627 26.2363 0.94466 26.2363H0.520199C0.154102 26.2363 -0.0899658 25.8535 0.0639038 25.5184L2.46742 20.2964C2.14907 20.0465 1.94215 19.653 1.94215 19.2169V18.9245V18.632C1.94215 18.2917 2.06949 17.9779 2.27641 17.7333L0.0585976 12.9208C-0.0952721 12.5858 0.148796 12.2029 0.514893 12.2029H0.939358C1.40096 12.2029 1.84664 12.389 2.1756 12.7187L6.43084 16.9782Z" fill="#070736"/>
<path d="M27.6448 24.3447L18.2748 37.2188C17.914 37.7134 17.3409 38.0059 16.7308 38.0059H15.7864C15.4362 38.0059 15.1868 37.6549 15.3088 37.3252L20.1318 23.6746L27.6448 24.3447Z" fill="#070736"/>
<path d="M18.2713 0.793479L27.5618 13.556L20.0859 14.2207L15.3054 0.687126C15.1887 0.357428 15.4327 0.00645924 15.7829 0.00645924H16.7274C17.3375 0.00645924 17.9106 0.298931 18.2713 0.793479Z" fill="#070736"/>
</svg>
