<svg width="37" height="39" viewBox="0 0 37 39" fill="none" xmlns="http://www.w3.org/2000/svg">
<path d="M29.1167 34.8333L32.7917 37.8958V38.9167H4.20833V37.8958L7.88333 34.8333H4.20833C1.95317 34.8333 0.125 33.0052 0.125 30.75V8.29167C0.125 3.78134 3.78134 0.125 8.29167 0.125H28.7083C33.2186 0.125 36.875 3.78134 36.875 8.29167V30.75C36.875 33.0052 35.0469 34.8333 32.7917 34.8333H29.1167ZM8.29167 4.20833C6.0365 4.20833 4.20833 6.0365 4.20833 8.29167V30.75H32.7917V8.29167C32.7917 6.0365 30.9636 4.20833 28.7083 4.20833H8.29167ZM18.5 28.7083C16.2448 28.7083 14.4167 26.8802 14.4167 24.625C14.4167 22.3698 16.2448 20.5417 18.5 20.5417C20.7552 20.5417 22.5833 22.3698 22.5833 24.625C22.5833 26.8802 20.7552 28.7083 18.5 28.7083ZM6.25 8.29167H30.75V16.4583H6.25V8.29167Z" fill="#252A31"/>
</svg>
